<svg width="16" height="16" viewBox="0 0 16 16" fill="none" xmlns="http://www.w3.org/2000/svg">
<path d="M8.58964 11.0315L6.14791 13.4733C6.14791 13.4733 6.14791 13.4733 6.14786 13.4733C6.14786 13.4733 6.14786 13.4734 6.1478 13.4734C5.13807 14.4832 3.49502 14.4832 2.48518 13.4734C1.99597 12.9842 1.72662 12.3337 1.72662 11.642C1.72662 10.9503 1.99597 10.3 2.48501 9.81081C2.48506 9.81075 2.48512 9.8107 2.48518 9.81064L4.92691 7.36885C5.264 7.0317 5.264 6.48506 4.92685 6.14796C4.58976 5.81087 4.04311 5.81087 3.70596 6.14796L1.26423 8.58975C1.26406 8.58992 1.26389 8.59015 1.26371 8.59032C0.448806 9.40551 0 10.4893 0 11.642C0 12.795 0.448978 13.879 1.26429 14.6943C2.10584 15.5358 3.21117 15.9565 4.31655 15.9565C5.42193 15.9565 6.52731 15.5358 7.36875 14.6943V14.6942C7.36881 14.6942 7.36881 14.6941 7.36881 14.6941L9.81053 12.2524C10.1476 11.9153 10.1476 11.3686 9.81048 11.0315C9.47344 10.6944 8.92685 10.6944 8.58964 11.0315Z" fill="white"/>
<path d="M15.9581 4.31655C15.9581 3.16357 15.5091 2.0796 14.6938 1.2643C13.0107 -0.418694 10.2722 -0.418636 8.58929 1.2643C8.58935 1.26418 8.58924 1.26441 8.58929 1.2643L6.14739 3.70619C5.81024 4.04329 5.81024 4.58999 6.14739 4.92708C6.31603 5.09572 6.53692 5.17998 6.75787 5.17998C6.97876 5.17998 7.19977 5.09566 7.36829 4.92708L9.80996 2.48548C9.80984 2.48559 9.81001 2.48536 9.80996 2.48548C10.8197 1.47575 12.463 1.4754 13.4729 2.48519C13.962 2.9744 14.2315 3.62481 14.2315 4.31655C14.2315 5.00823 13.9621 5.65854 13.473 6.14774C13.4731 6.14769 13.473 6.1478 13.473 6.14774L11.0311 8.5897C10.694 8.92679 10.694 9.47344 11.0312 9.81059C11.1998 9.97916 11.4207 10.0635 11.6416 10.0635C11.8626 10.0635 12.0835 9.97916 12.2521 9.81059L14.6938 7.36881C14.6936 7.36898 14.694 7.36863 14.6938 7.36881C15.5087 6.55361 15.9581 5.46924 15.9581 4.31655Z" fill="white"/>
<path d="M4.92669 11.0315C5.09527 11.2001 5.31622 11.2844 5.53711 11.2844C5.75806 11.2844 5.97901 11.2001 6.14758 11.0315L11.0311 6.14791C11.3683 5.81081 11.3683 5.26417 11.0311 4.92701C10.6941 4.58992 10.1474 4.58992 9.81025 4.92701L4.92669 9.81053C4.58954 10.1477 4.58954 10.6944 4.92669 11.0315Z" fill="white"/>
</svg>
