<svg width="21" height="15" viewBox="0 0 21 15" fill="none" xmlns="http://www.w3.org/2000/svg">
<path d="M20.0355 1.43749C20.0355 1.41458 20.0512 1.39228 20.0502 1.36963L13.9316 7.26518L20.0429 12.9724C20.0464 12.9316 20.0355 12.8905 20.0355 12.8489V1.43749Z" fill="white"/>
<path d="M12.9972 8.17188L10.4994 10.575C10.3731 10.6966 10.2098 10.7576 10.0465 10.7576C9.88655 10.7576 9.72662 10.6993 9.60109 10.5823L7.11012 8.26108L0.958984 14.1901C1.10855 14.2438 1.26909 14.2856 1.43721 14.2856H18.6558C18.9055 14.2856 19.1396 14.2095 19.3432 14.0961L12.9972 8.17188Z" fill="white"/>
<path d="M10.0387 9.20501L19.3764 0.21002C19.165 0.0843217 18.9189 0 18.6552 0H1.43653C1.09305 0 0.778329 0.133364 0.533203 0.336764L10.0387 9.20501Z" fill="white"/>
<path d="M0 1.65576V12.8479C0 12.9764 0.02953 13.1003 0.0615862 13.2186L6.13641 7.36873L0 1.65576Z" fill="white"/>
</svg>
