<svg width="16" height="21" viewBox="0 0 16 21" fill="none" xmlns="http://www.w3.org/2000/svg">
<path d="M0.598017 8.58671C0.70692 9.43598 0.92208 10.3337 1.23753 11.2549C1.67039 12.5191 2.28188 13.7891 3.05514 15.0297C4.00829 16.559 5.21249 18.0499 6.63431 19.4608C7.00681 19.8304 7.50101 20.0341 8.02586 20.0341C8.5507 20.0341 9.04487 19.8304 9.41744 19.4608C10.8392 18.0499 12.0435 16.559 12.9966 15.0298C13.7698 13.7892 14.3813 12.5192 14.8142 11.255C15.1296 10.3338 15.3448 9.43605 15.4537 8.58674C15.5284 8.00374 15.5285 7.62746 15.5253 7.49466C15.5224 6.49076 15.3239 5.51616 14.9354 4.59746C14.5576 3.70428 14.0171 2.9024 13.3287 2.21412C12.6405 1.52584 11.8386 0.985309 10.9454 0.607515C10.0199 0.216045 9.03763 0.0175781 8.02582 0.0175781C7.01405 0.0175781 6.03177 0.216078 5.10627 0.607515C4.21305 0.985309 3.41121 1.52584 2.72293 2.21412C2.03461 2.9024 1.49412 3.70428 1.11632 4.59746C0.727769 5.51612 0.529336 6.49079 0.52642 7.49466C0.523135 7.62743 0.523269 8.00371 0.598017 8.58671ZM8.40589 18.4415C8.30068 18.5459 8.16325 18.5981 8.02582 18.5981C7.88839 18.5981 7.75096 18.5459 7.64578 18.4415C1.75788 12.5987 1.96214 7.52114 1.96235 7.51705V7.51701C1.96235 4.16822 4.67706 1.4535 8.02582 1.4535C11.3746 1.4535 14.0893 4.16822 14.0893 7.51698V7.51701C14.0895 7.52114 14.2938 12.5987 8.40589 18.4415Z" fill="white"/>
<path d="M8.02504 20.05C7.49574 20.05 6.99737 19.8447 6.62169 19.4718C5.19894 18.06 3.99393 16.5682 3.04007 15.0378C2.26625 13.7962 1.65416 12.5251 1.22086 11.2595C0.905073 10.3373 0.689645 9.43848 0.580574 8.58804C0.505826 8.0049 0.505525 7.62828 0.508843 7.4934C0.511759 6.48769 0.710662 5.51075 1.10005 4.59011C1.47872 3.69488 2.02045 2.89119 2.71024 2.20144C3.40007 1.51161 4.20376 0.969876 5.09892 0.591244C6.02656 0.198936 7.01105 0 8.02504 0C9.03909 0 10.0235 0.198936 10.9511 0.591277C11.8463 0.969876 12.65 1.51165 13.3398 2.20147C14.0296 2.89126 14.5713 3.69491 14.95 4.59014C15.3394 5.51078 15.5383 6.48773 15.5412 7.4938C15.5445 7.62848 15.5442 8.00547 15.4695 8.58807C15.3604 9.43862 15.145 10.3374 14.8292 11.2596C14.3959 12.525 13.7839 13.7962 13.01 15.0378C12.0561 16.5682 10.8511 18.06 9.42842 19.4718C9.05267 19.8447 8.5543 20.05 8.02504 20.05ZM8.02504 0.0335191C7.01554 0.0335191 6.03548 0.23155 5.11202 0.622148C4.22085 0.999071 3.42075 1.53839 2.73401 2.22517C2.0473 2.91184 1.50795 3.71194 1.13099 4.60318C0.743376 5.51969 0.545345 6.49225 0.542429 7.49387C0.539111 7.62835 0.539413 8.00296 0.613892 8.58378C0.722662 9.43198 0.937553 10.3286 1.25263 11.2487C1.68513 12.5118 2.29608 13.7807 3.0686 15.0201C4.02104 16.5483 5.22445 18.038 6.64536 19.4481C7.0147 19.8146 7.50472 20.0165 8.0251 20.0165C8.54545 20.0165 9.03547 19.8146 9.40485 19.448C10.8258 18.038 12.0291 16.5482 12.9816 15.02C13.7542 13.7805 14.3651 12.5117 14.7976 11.2486C15.1126 10.3287 15.3275 9.43208 15.4363 8.58374C15.5108 8.00343 15.5111 7.62845 15.5078 7.49421C15.5049 6.49222 15.3069 5.51966 14.9192 4.60315C14.5422 3.71191 14.0029 2.91184 13.3162 2.22513C12.6294 1.53839 11.8294 0.999037 10.9382 0.622115C10.0146 0.23155 9.03457 0.0335191 8.02504 0.0335191ZM8.02504 18.614C7.87725 18.614 7.73808 18.5567 7.6332 18.4526C1.7707 12.635 1.94242 7.56597 1.94484 7.51546C1.94484 4.16358 4.67242 1.43596 8.02507 1.43596C11.3777 1.43596 14.1053 4.16354 14.1053 7.51619C14.1074 7.56768 14.1485 8.81553 13.4702 10.7958C13.0721 11.9581 12.5071 13.1301 11.7908 14.2792C10.8957 15.7151 9.76062 17.1192 8.41698 18.4526C8.31199 18.5567 8.17279 18.614 8.02504 18.614ZM8.02504 1.46944C4.69086 1.46944 1.97832 4.18201 1.97832 7.51619C1.97775 7.52957 1.93284 8.80504 2.61291 10.7888C3.01041 11.9482 3.57443 13.1174 4.28933 14.2639C5.18275 15.6967 6.31573 17.098 7.6568 18.4288C7.75541 18.5267 7.88617 18.5805 8.02504 18.5805C8.16391 18.5805 8.2947 18.5267 8.39328 18.4288C9.73535 17.097 10.869 15.6947 11.7628 14.2607C12.4777 13.1136 13.0416 11.9438 13.4389 10.7838C13.9798 9.20395 14.0894 7.956 14.0718 7.51686C14.0718 4.18205 11.3592 1.46944 8.02504 1.46944Z" fill="white"/>
<path d="M2.59486 6.68366L4.6834 2.92428L7.60736 2.08887H9.6959L11.7844 3.7597L12.6199 4.59512L13.4553 6.68366V9.18991L12.6199 10.443L11.7844 11.6962C11.2506 11.8148 11.6768 13.2469 11.3667 13.367C9.49294 14.0926 8.44277 11.6962 10.1136 13.7847C10.4826 14.246 8.86048 17.1264 8.02507 17.1264C7.18965 17.1264 8.02507 13.367 7.18965 13.367C6.35423 13.367 6.77194 15.4555 6.35423 15.0378C5.93652 14.6201 5.93652 14.6201 5.51882 14.2024C5.10111 13.7847 4.26569 11.6962 4.6834 11.6962C5.93652 11.6962 3.84798 12.1139 3.01257 9.60762C2.46794 7.97374 2.59486 7.93678 2.59486 7.51908C2.59486 7.18491 2.59486 6.8229 2.59486 6.68366Z" stroke="white" stroke-width="3.34167"/>
<path d="M11.3504 3.99865C10.9191 3.56732 10.4164 3.22851 9.85639 2.99167C9.27577 2.74611 8.65993 2.62158 8.02585 2.62158C7.39176 2.62158 6.77588 2.74611 6.19533 2.99167C5.6353 3.22855 5.13264 3.56736 4.70132 3.99865C4.26999 4.42997 3.93118 4.93266 3.6943 5.49266C3.44871 6.07321 3.32422 6.68909 3.32422 7.32317C3.32422 7.95726 3.44871 8.57314 3.6943 9.15369C3.93118 9.71372 4.26996 10.2164 4.70132 10.6477C5.13264 11.079 5.6353 11.4178 6.19533 11.6547C6.77592 11.9002 7.39176 12.0248 8.02585 12.0248C8.65993 12.0248 9.27581 11.9002 9.85636 11.6547C10.4164 11.4178 10.919 11.079 11.3504 10.6477C11.7817 10.2164 12.1205 9.71372 12.3574 9.15369C12.6029 8.57314 12.7274 7.95726 12.7274 7.32317C12.7274 6.68909 12.6029 6.07321 12.3574 5.49266C12.1205 4.93266 11.7817 4.42997 11.3504 3.99865ZM8.02585 10.5889C6.22228 10.5889 4.76018 9.1268 4.76018 7.32321C4.76018 5.51961 6.22228 4.05757 8.02585 4.05757C9.82941 4.05757 11.2915 5.51965 11.2915 7.32324C11.2915 9.12684 9.82941 10.5889 8.02585 10.5889Z" fill="white"/>
<path d="M8.02695 12.0421C7.39065 12.0421 6.77259 11.9172 6.1899 11.6708C5.62782 11.433 5.12339 11.093 4.69059 10.6602C4.25779 10.2274 3.91777 9.72299 3.67999 9.16087C3.43355 8.57831 3.30859 7.96025 3.30859 7.32382C3.30859 6.68739 3.43355 6.06937 3.67999 5.48677C3.91774 4.92469 4.25775 4.42026 4.69059 3.98743C5.12342 3.55456 5.62788 3.21458 6.1899 2.97686C6.77256 2.73043 7.39062 2.60547 8.02695 2.60547C8.66321 2.60547 9.2813 2.73043 9.864 2.97686C10.4261 3.21461 10.9305 3.5546 11.3633 3.98743C11.7962 4.42026 12.1362 4.92469 12.3739 5.48677C12.6204 6.06937 12.7453 6.68743 12.7453 7.32382C12.7453 7.96022 12.6203 8.57827 12.3739 9.16087C12.1362 9.72292 11.7962 10.2273 11.3633 10.6602C10.9305 11.093 10.4261 11.433 9.864 11.6708C9.28133 11.9172 8.66324 12.0421 8.02695 12.0421ZM8.02695 2.63892C7.39514 2.63892 6.78144 2.76298 6.20294 3.00766C5.64491 3.24371 5.14403 3.58131 4.71425 4.01109C4.2845 4.44084 3.9469 4.94172 3.71082 5.49981C3.46613 6.07825 3.34208 6.69192 3.34208 7.32382C3.34208 7.95572 3.46613 8.56939 3.71082 9.1478C3.9469 9.70592 4.28454 10.2068 4.71425 10.6365C5.144 11.0662 5.64484 11.4039 6.20294 11.6399C6.78148 11.8846 7.39514 12.0087 8.02695 12.0087C8.65875 12.0087 9.27242 11.8846 9.85096 11.6399C10.409 11.4038 10.9099 11.0663 11.3396 10.6365C11.7694 10.2067 12.107 9.70586 12.3431 9.1478C12.5878 8.56939 12.7118 7.95569 12.7118 7.32382C12.7118 6.69195 12.5878 6.07825 12.3431 5.49981C12.107 4.94175 11.7694 4.44088 11.3396 4.01109C10.9099 3.58131 10.409 3.24371 9.85096 3.00766C9.27238 2.76298 8.65875 2.63892 8.02695 2.63892ZM8.02695 10.6062C6.21701 10.6062 4.74452 9.13372 4.74452 7.32379C4.74452 5.51386 6.21701 4.04139 8.02695 4.04139C9.83688 4.04139 11.3094 5.51389 11.3094 7.32382C11.3094 9.13372 9.83688 10.6062 8.02695 10.6062ZM8.02695 4.07491C6.23548 4.07491 4.77804 5.53236 4.77804 7.32379C4.77804 9.11525 6.23548 10.5727 8.02695 10.5727C9.81838 10.5727 11.2759 9.11525 11.2759 7.32382C11.2759 5.53236 9.81838 4.07491 8.02695 4.07491Z" fill="white"/>
</svg>
