<svg width="18" height="18" viewBox="0 0 18 18" fill="none" xmlns="http://www.w3.org/2000/svg">
<path d="M11.7378 12.4588L13.1413 11.0553C13.3303 10.8686 13.5695 10.7408 13.8297 10.6874C14.09 10.634 14.3602 10.6573 14.6074 10.7545L16.3179 11.4375C16.5678 11.5389 16.7821 11.712 16.9337 11.935C17.0854 12.158 17.1676 12.4209 17.1701 12.6906V15.8234C17.1686 16.0069 17.13 16.1881 17.0567 16.3563C16.9833 16.5244 16.8767 16.676 16.7433 16.8018C16.6098 16.9277 16.4522 17.0252 16.2801 17.0886C16.1079 17.152 15.9247 17.1798 15.7415 17.1705C3.75536 16.4249 1.33683 6.27461 0.879438 2.38992C0.858206 2.19916 0.877605 2.00606 0.93636 1.82333C0.995115 1.6406 1.09189 1.47238 1.22033 1.32974C1.34877 1.1871 1.50595 1.07327 1.68154 0.995737C1.85712 0.918206 2.04714 0.87873 2.23908 0.879908H5.26538C5.53543 0.880708 5.79907 0.962281 6.02239 1.11414C6.2457 1.26599 6.41848 1.48118 6.5185 1.73203L7.20145 3.44255C7.30186 3.68883 7.32748 3.95924 7.27511 4.21999C7.22273 4.48075 7.09469 4.72029 6.90697 4.90871L5.50347 6.3122C5.50347 6.3122 6.31174 11.7821 11.7378 12.4588Z" fill="white"/>
</svg>
