<svg width="26" height="25" viewBox="0 0 26 25" fill="none" xmlns="http://www.w3.org/2000/svg">
<g clip-path="url(#clip0)">
<path d="M12.5849 11.5405C14.1703 11.5405 15.543 10.9718 16.6649 9.84993C17.7865 8.72819 18.3553 7.35569 18.3553 5.77005C18.3553 4.18497 17.7867 2.81228 16.6647 1.69018C15.5428 0.568634 14.1701 0 12.5849 0C10.9992 0 9.62673 0.568634 8.505 1.69037C7.38327 2.8121 6.81445 4.18479 6.81445 5.77005C6.81445 7.35569 7.38327 8.72838 8.505 9.85011C9.6271 10.9717 10.9998 11.5405 12.5849 11.5405ZM9.49787 2.68305C10.3586 1.82233 11.3683 1.40395 12.5849 1.40395C13.8013 1.40395 14.8112 1.82233 15.6721 2.68305C16.5328 3.54396 16.9513 4.55382 16.9513 5.77005C16.9513 6.98665 16.5328 7.99634 15.6721 8.85724C14.8112 9.71814 13.8013 10.1365 12.5849 10.1365C11.3686 10.1365 10.359 9.71796 9.49787 8.85724C8.63697 7.99652 8.2184 6.98665 8.2184 5.77005C8.2184 4.55382 8.63697 3.54396 9.49787 2.68305Z" fill="white"/>
<path d="M22.2358 18.1154C22.2049 17.6695 22.1424 17.1831 22.0504 16.6695C21.9575 16.152 21.8379 15.6627 21.6947 15.2156C21.5467 14.7535 21.3457 14.2971 21.0969 13.8597C20.8391 13.4058 20.536 13.0105 20.1959 12.6852C19.8402 12.3449 19.4048 12.0713 18.9012 11.8718C18.3994 11.6733 17.8434 11.5727 17.2485 11.5727C17.0149 11.5727 16.789 11.6685 16.3527 11.9526C16.0841 12.1277 15.7701 12.3303 15.4195 12.5543C15.1197 12.7453 14.7136 12.9242 14.212 13.0862C13.7226 13.2446 13.2257 13.3249 12.7351 13.3249C12.2448 13.3249 11.7479 13.2446 11.2582 13.0862C10.7571 12.9244 10.3508 12.7454 10.0515 12.5544C9.70428 12.3325 9.39001 12.13 9.11747 11.9524C8.68151 11.6684 8.45558 11.5725 8.22197 11.5725C7.62695 11.5725 7.07104 11.6733 6.56943 11.8719C6.06625 12.0712 5.63064 12.3447 5.27464 12.6854C4.93453 13.0108 4.63143 13.4059 4.37373 13.8597C4.12528 14.2971 3.92415 14.7533 3.77609 15.2158C3.6331 15.6629 3.5135 16.152 3.42062 16.6695C3.32843 17.1824 3.2661 17.669 3.2352 18.116C3.20482 18.553 3.18945 19.0078 3.18945 19.4673C3.18945 20.6619 3.5692 21.629 4.31803 22.3422C5.05762 23.046 6.03605 23.4029 7.22626 23.4029H18.2453C19.4351 23.4029 20.4136 23.046 21.1533 22.3422C21.9023 21.6295 22.2821 20.6621 22.2821 19.4672C22.2819 19.0061 22.2664 18.5512 22.2358 18.1154ZM20.2287 21.3706C19.74 21.8357 19.0912 22.0618 18.2451 22.0618H7.22626C6.38 22.0618 5.7312 21.8357 5.24269 21.3708C4.76342 20.9145 4.53052 20.2918 4.53052 19.4673C4.53052 19.0385 4.54466 18.6151 4.57294 18.2087C4.60053 17.8099 4.65692 17.3718 4.74055 16.9064C4.82314 16.4467 4.92824 16.0152 5.05325 15.6247C5.1732 15.2502 5.33679 14.8793 5.53967 14.5221C5.7333 14.1817 5.95608 13.8896 6.20191 13.6542C6.43185 13.434 6.72168 13.2539 7.06319 13.1187C7.37903 12.9937 7.73398 12.9253 8.11931 12.915C8.16628 12.9399 8.24991 12.9876 8.38539 13.0759C8.66108 13.2556 8.97884 13.4606 9.33012 13.6849C9.72611 13.9374 10.2363 14.1654 10.8458 14.3622C11.4689 14.5637 12.1044 14.666 12.7352 14.666C13.3661 14.666 14.0018 14.5637 14.6245 14.3624C15.2346 14.1652 15.7446 13.9374 16.1411 13.6846C16.5006 13.4548 16.8094 13.2558 17.0851 13.0759C17.2206 12.9878 17.3042 12.9399 17.3512 12.915C17.7367 12.9253 18.0916 12.9937 18.4077 13.1187C18.749 13.2539 19.0388 13.4342 19.2688 13.6542C19.5146 13.8894 19.7374 14.1815 19.931 14.5223C20.134 14.8793 20.2978 15.2503 20.4176 15.6245C20.5428 16.0156 20.6481 16.4468 20.7305 16.9062C20.8139 17.3725 20.8705 17.8108 20.8981 18.2089V18.2092C20.9265 18.6141 20.9408 19.0373 20.941 19.4673C20.9408 20.2919 20.7079 20.9145 20.2287 21.3706Z" fill="white"/>
</g>
<defs>
<clipPath id="clip0">
<rect width="20.3503" height="24.4204" fill="white" transform="translate(2.74219)"/>
</clipPath>
</defs>
</svg>
