<svg width="22" height="22" viewBox="0 0 22 22" fill="none" xmlns="http://www.w3.org/2000/svg">
<g clip-path="url(#clip0)">
<path d="M9.55931 0C4.28845 0 0 4.28845 0 9.55931C0 14.8305 4.28845 19.1186 9.55931 19.1186C14.8305 19.1186 19.1186 14.8305 19.1186 9.55931C19.1186 4.28845 14.8305 0 9.55931 0ZM9.55931 17.3539C5.26145 17.3539 1.7648 13.8572 1.7648 9.55935C1.7648 5.26149 5.26145 1.7648 9.55931 1.7648C13.8572 1.7648 17.3538 5.26145 17.3538 9.55931C17.3538 13.8572 13.8572 17.3539 9.55931 17.3539Z" fill="white"/>
<path d="M21.4482 20.2007L16.3891 15.1416C16.0444 14.7969 15.4861 14.7969 15.1414 15.1416C14.7966 15.486 14.7966 16.0449 15.1414 16.3893L20.2004 21.4484C20.3728 21.6208 20.5984 21.707 20.8243 21.707C21.0499 21.707 21.2758 21.6208 21.4482 21.4484C21.7929 21.104 21.7929 20.5451 21.4482 20.2007Z" fill="white"/>
</g>
<defs>
<clipPath id="clip0">
<rect width="21.707" height="21.707" fill="white"/>
</clipPath>
</defs>
</svg>
