<svg width="30" height="30" viewBox="0 0 30 30" fill="none" xmlns="http://www.w3.org/2000/svg">
<circle cx="15" cy="15" r="15" fill="#2C8BE3"/>
<path d="M24 10.5653C23.3678 10.8308 22.6942 11.0067 21.9919 11.0922C22.7144 10.6792 23.2658 10.0303 23.5251 9.24817C22.8514 9.63263 22.1077 9.9042 21.3151 10.0557C20.6754 9.40379 19.7638 9 18.7693 9C16.8398 9 15.2864 10.4992 15.2864 12.3371C15.2864 12.6015 15.3098 12.8558 15.3672 13.0979C12.4697 12.9626 9.90594 11.6333 8.18362 9.60822C7.88294 10.1076 7.70656 10.6792 7.70656 11.2946C7.70656 12.45 8.32812 13.4742 9.25463 14.0672C8.69469 14.057 8.14538 13.9014 7.68 13.6563C7.68 13.6664 7.68 13.6796 7.68 13.6929C7.68 15.3141 8.88806 16.6608 10.4722 16.971C10.1886 17.0452 9.87937 17.0808 9.5585 17.0808C9.33538 17.0808 9.11012 17.0686 8.89869 17.0239C9.35025 18.3451 10.6316 19.3164 12.1553 19.3479C10.9695 20.2358 9.46394 20.7708 7.83406 20.7708C7.54825 20.7708 7.27412 20.7586 7 20.7251C8.54381 21.6781 10.3734 22.2222 12.3465 22.2222C18.7597 22.2222 22.266 17.1368 22.266 12.7287C22.266 12.5812 22.2607 12.4388 22.2533 12.2974C22.9449 11.8275 23.5261 11.2407 24 10.5653Z" fill="white"/>
</svg>
