<svg width="30" height="30" viewBox="0 0 30 30" fill="none" xmlns="http://www.w3.org/2000/svg">
<circle cx="15" cy="15" r="15" fill="#1E23DF"/>
<path d="M20.9368 16.8811C20.6458 16.4611 20.729 16.2743 20.9368 15.8989C20.9405 15.8946 23.3428 12.1009 23.5904 10.8143L23.5919 10.8134C23.7149 10.3446 23.5919 10 22.9971 10H21.029C20.528 10 20.297 10.2957 20.1732 10.6266C20.1732 10.6266 19.1712 13.3677 17.7537 15.1446C17.2961 15.658 17.0846 15.8226 16.8349 15.8226C16.7119 15.8226 16.5206 15.658 16.5206 15.1891V10.8134C16.5206 10.2511 16.3804 10 15.9656 10H12.871C12.5567 10 12.37 10.2623 12.37 10.5066C12.37 11.0397 13.0787 11.1623 13.1522 12.6623V15.9169C13.1522 16.63 13.039 16.7611 12.7877 16.7611C12.1187 16.7611 10.4949 14.0089 9.53262 10.8589C9.33837 10.2477 9.14861 10.0009 8.64384 10.0009H6.67502C6.11325 10.0009 6 10.2966 6 10.6274C6 11.212 6.66902 14.1186 9.11111 17.9586C10.7387 20.5797 13.0307 22 15.1158 22C16.3691 22 16.5221 21.6846 16.5221 21.142C16.5221 18.6374 16.4089 18.4009 17.0366 18.4009C17.3276 18.4009 17.8287 18.5654 18.9987 19.8297C20.336 21.3289 20.5558 22 21.3043 22H23.2723C23.8334 22 24.1176 21.6846 23.9541 21.0623C23.5799 19.7534 21.0508 17.0611 20.9368 16.8811Z" fill="white"/>
</svg>
